<svg id="Layer_1" data-name="Layer 1" xmlns="http://www.w3.org/2000/svg" viewBox="0 0 194.84 105.17"><defs><style>.cls-1{fill:#b50000;}.cls-2{fill:#feffff;}.cls-3{fill:#0093e6;}</style></defs><polygon class="cls-1" points="40.84 0 4.69 14.62 0 58.37 45.07 105.17 65 30.78 40.84 0"/><polyline class="cls-2" points="37.43 13.05 52.51 33.73 33.17 42.05 23.61 34.09 35.71 29.23 31.39 35.27 42.65 30.19 36.06 21.22 19.92 27.7 18.28 37.16 43.85 59.31 44.84 75.78 30.22 79.96 21.16 66.74 31.34 75.77 40.03 73.59 40.43 62 12.34 39.17 14.1 22.54 37.43 13.05"/><path class="cls-3" d="M103.11,82.48l3.54-4.26a.26.26,0,0,1,.2-.1h4.05a.27.27,0,0,1,.25.14c.06.09,0,.19-.05.3l-4.32,5.14L111.44,94a.26.26,0,0,1,0,.27.25.25,0,0,1-.24.1h-3.33a.25.25,0,0,1-.24-.17l-3.43-7.52c-.19.21-.37.42-.55.65s-.36.44-.54.65v6.12a.24.24,0,0,1-.27.27h-3a.24.24,0,0,1-.27-.27V70.6a.2.2,0,0,1,.13-.2l3-1.7a.3.3,0,0,1,.29,0,.24.24,0,0,1,.12.24Z" transform="translate(-14.9 -11.92)"/><path class="cls-3" d="M125.73,94.11q0,.27-.24.27h-3.06a.24.24,0,0,1-.27-.27v-1.4l-.89.48c-.77.39-1.63.79-2.58,1.21a7.22,7.22,0,0,1-2.93.63,2.45,2.45,0,0,1-1.56-.45,2.81,2.81,0,0,1-.89-1.12,5,5,0,0,1-.39-1.49,14.08,14.08,0,0,1-.08-1.54V79.11a.13.13,0,0,1,0-.12l.08-.09,3.34-1.66a.26.26,0,0,1,.27,0,.24.24,0,0,1,.1.23v13a1.87,1.87,0,0,0,0,.34.19.19,0,0,0,.21.17,4.29,4.29,0,0,0,1.1-.22,9.12,9.12,0,0,0,1.19-.46l1.18-.56c.38-.19.72-.38,1-.56l.42-.25.33-.16V79.11a.23.23,0,0,1,.13-.21l3.06-1.66a.26.26,0,0,1,.27,0,.25.25,0,0,1,.11.23Z" transform="translate(-14.9 -11.92)"/><path class="cls-3" d="M131.78,94.11a.24.24,0,0,1-.27.27h-3a.24.24,0,0,1-.27-.27V70.6a.2.2,0,0,1,.14-.2l3-1.7a.28.28,0,0,1,.28,0,.24.24,0,0,1,.12.24Z" transform="translate(-14.9 -11.92)"/><path class="cls-3" d="M135.76,81.76h-2.21a.29.29,0,0,1-.25-.1.19.19,0,0,1,0-.24l.92-3.1a.24.24,0,0,1,.24-.2h1.32V73.94a.24.24,0,0,1,.14-.24L139,72a.36.36,0,0,1,.29,0,.26.26,0,0,1,.12.24v5.85h3a.33.33,0,0,1,.26.1.21.21,0,0,1,0,.24l-.92,3.1a.26.26,0,0,1-.27.2h-2v7.18a2.41,2.41,0,0,0,.61,1.72,2.27,2.27,0,0,0,1.7.63,5.18,5.18,0,0,0,1.71-.38.28.28,0,0,1,.3,0,.25.25,0,0,1,.07.29l-1,3.33a.22.22,0,0,1-.06.14.21.21,0,0,1-.14.07,3.29,3.29,0,0,1-.63.07h-.59a5.2,5.2,0,0,1-5.62-5.92Z" transform="translate(-14.9 -11.92)"/><path class="cls-3" d="M158.48,94.11c0,.18-.08.27-.23.27h-3.06c-.19,0-.28-.09-.28-.27v-1.4l-.88.48c-.77.39-1.63.79-2.59,1.21a7.18,7.18,0,0,1-2.92.63,2.5,2.5,0,0,1-1.57-.45,2.79,2.79,0,0,1-.88-1.12,4.48,4.48,0,0,1-.39-1.49,14.2,14.2,0,0,1-.09-1.54V79.11a.17.17,0,0,1,0-.12.75.75,0,0,0,.09-.09l3.33-1.66a.26.26,0,0,1,.27,0,.25.25,0,0,1,.11.23v13a1.87,1.87,0,0,0,0,.34.18.18,0,0,0,.2.17,4.44,4.44,0,0,0,1.11-.22,9.7,9.7,0,0,0,1.19-.46c.4-.18.79-.37,1.17-.56a11.43,11.43,0,0,0,1-.56l.43-.25.32-.16V79.11a.24.24,0,0,1,.14-.21l3.06-1.66a.26.26,0,0,1,.27,0,.24.24,0,0,1,.1.23Z" transform="translate(-14.9 -11.92)"/><path class="cls-3" d="M164.61,79.69a14.23,14.23,0,0,1,1.25-.84c.48-.28,1-.54,1.45-.78a10.93,10.93,0,0,1,1.48-.6,6.39,6.39,0,0,1,1.36-.27.24.24,0,0,1,.27.27V81a.27.27,0,0,1-.1.22.26.26,0,0,1-.27,0,2.39,2.39,0,0,0-.82-.14,4.32,4.32,0,0,0-1.34.22,7.63,7.63,0,0,0-1.35.58,6.61,6.61,0,0,0-1.17.82,2.89,2.89,0,0,0-.76.93V94.11q0,.27-.24.27h-3.06c-.19,0-.28-.09-.28-.27v-15a.24.24,0,0,1,.14-.21l3.06-1.66a.26.26,0,0,1,.27,0,.25.25,0,0,1,.11.23Z" transform="translate(-14.9 -11.92)"/><path class="cls-3" d="M185.49,94.11a.24.24,0,0,1-.27.27h-3.06q-.24,0-.24-.27V92.68l-.78.48c-.71.38-1.46.77-2.26,1.17a4.88,4.88,0,0,1-4.15.24,4.49,4.49,0,0,1-1.52-1,4.23,4.23,0,0,1-1-1.53,5.27,5.27,0,0,1-.34-1.94,5,5,0,0,1,.18-1.31,5.53,5.53,0,0,1,.53-1.25,4.5,4.5,0,0,1,1.94-1.86l7.38-3.5a1.17,1.17,0,0,0-.34-.66,2.06,2.06,0,0,0-.65-.41,3.46,3.46,0,0,0-.78-.21,6.9,6.9,0,0,0-.75,0,5.64,5.64,0,0,0-2.67.68,9.1,9.1,0,0,0-2.23,1.67.26.26,0,0,1-.23,0,.41.41,0,0,1-.21-.1l-1.66-2.48a.22.22,0,0,1,0-.34A11.7,11.7,0,0,1,175.71,78a9.1,9.1,0,0,1,3.9-.87,7.16,7.16,0,0,1,2.22.34,5.7,5.7,0,0,1,1.89,1,4.7,4.7,0,0,1,1.3,1.65,5.23,5.23,0,0,1,.47,2.25ZM181.92,86c-.93.43-1.83.86-2.7,1.28s-1.77.83-2.67,1.24a1.83,1.83,0,0,0-.63.58,1.42,1.42,0,0,0-.26.81,1.44,1.44,0,0,0,.36,1,1.19,1.19,0,0,0,.93.41,2.58,2.58,0,0,0,.77-.15c.31-.11.63-.23,1-.38s.71-.32,1.08-.51l1.08-.56,1-.51Z" transform="translate(-14.9 -11.92)"/><path class="cls-1" d="M106.56,41.06a5.47,5.47,0,0,0-1.21.15,4.32,4.32,0,0,0-1.24.48,3.45,3.45,0,0,0-1,.81,1.8,1.8,0,0,0-.38,1.14,2.62,2.62,0,0,0,.38,1.42,3.87,3.87,0,0,0,1,1.07,9.36,9.36,0,0,0,1.52.87c.57.27,1.18.53,1.82.77.91.37,1.84.79,2.8,1.25a11.06,11.06,0,0,1,2.6,1.77,8.63,8.63,0,0,1,1.91,2.66,9,9,0,0,1,.76,3.94,6.8,6.8,0,0,1-.76,3.22,7.94,7.94,0,0,1-2,2.49,9.8,9.8,0,0,1-6.08,2.18,9,9,0,0,1-5.55-1.75,8.78,8.78,0,0,1-3.15-4.92q-.08-.22.18-.3L102,56.8a.24.24,0,0,1,.26,0,.43.43,0,0,1,.15.18,4.9,4.9,0,0,0,1.47,3A4.47,4.47,0,0,0,107,61.11a3.46,3.46,0,0,0,1.29-.28,5.58,5.58,0,0,0,1.33-.73,4.62,4.62,0,0,0,1-1.11,2.48,2.48,0,0,0,.42-1.38,4.87,4.87,0,0,0-.48-2.28,5.13,5.13,0,0,0-1.25-1.59,7.34,7.34,0,0,0-1.79-1.12c-.67-.31-1.38-.6-2.12-.87s-1.71-.67-2.56-1.07a8.78,8.78,0,0,1-2.26-1.49A6.87,6.87,0,0,1,99,46.94a8.18,8.18,0,0,1-.62-3.41,5.51,5.51,0,0,1,.74-2.85,7.26,7.26,0,0,1,1.89-2.16,8.94,8.94,0,0,1,2.62-1.36,9.62,9.62,0,0,1,7.9.86A9.61,9.61,0,0,1,115,41.91a.26.26,0,0,1-.15.41l-3.68,1.47c-.25.1-.37,0-.37-.18a2.61,2.61,0,0,0-.63-1.14,3.85,3.85,0,0,0-1-.8,4.93,4.93,0,0,0-1.27-.46A6.06,6.06,0,0,0,106.56,41.06Z" transform="translate(-14.9 -11.92)"/><path class="cls-1" d="M133.13,60.19a.27.27,0,0,1,.26.13.28.28,0,0,1,0,.28l-2,3.72a.25.25,0,0,1-.26.14H118.69c-.2,0-.3-.09-.3-.29V37.75a.27.27,0,0,1,.3-.3h11.6a.26.26,0,0,1,.26.15l1.92,3.69a.34.34,0,0,1,0,.31.27.27,0,0,1-.26.13h-9.54v6.74h5.15a.29.29,0,0,1,.3.19l1.33,3.71a.24.24,0,0,1,0,.27.36.36,0,0,1-.28.11h-6.48v7.44Z" transform="translate(-14.9 -11.92)"/><path class="cls-1" d="M144.61,53.63,140.28,57v7.15a.25.25,0,0,1-.29.29H136.3c-.2,0-.3-.09-.3-.29V37.75a.27.27,0,0,1,.3-.3h9.37a6.45,6.45,0,0,1,2.63.54,6.88,6.88,0,0,1,2.17,1.47,6.76,6.76,0,0,1,1.47,2.18,6.57,6.57,0,0,1,.54,2.67,6.66,6.66,0,0,1-.75,3.15,6.84,6.84,0,0,1-2,2.34v0a7.49,7.49,0,0,0-.69.57q-.3.29-.66.57l4.5,13.16a.29.29,0,0,1,0,.29.33.33,0,0,1-.28.11h-3.94a.26.26,0,0,1-.26-.18Zm-4.33-2,6.77-5.2a3.35,3.35,0,0,0,.84-.93,2.33,2.33,0,0,0,.31-1.2,2.56,2.56,0,0,0-2.77-2.58h-5.15Z" transform="translate(-14.9 -11.92)"/><path class="cls-1" d="M171.05,37.45c.24,0,.34.13.29.37L165.6,64.24a.29.29,0,0,1-.3.22h-4.57a.28.28,0,0,1-.29-.22l-5.79-26.42c-.05-.24,0-.37.3-.37h3.76a.3.3,0,0,1,.29.22l4,18.25,4-18.25a.26.26,0,0,1,.25-.22Z" transform="translate(-14.9 -11.92)"/><path class="cls-1" d="M189.26,37.45a.26.26,0,0,1,.29.3V57.61a7.61,7.61,0,0,1-2.19,5.8,8.69,8.69,0,0,1-6.23,2.09,8.56,8.56,0,0,1-6.2-2.09,7.7,7.7,0,0,1-2.15-5.8V37.75a.27.27,0,0,1,.3-.3h3.68a.27.27,0,0,1,.3.3V57.61a3.26,3.26,0,0,0,.35,1.49,4.05,4.05,0,0,0,.92,1.24,4.37,4.37,0,0,0,1.31.81,3.94,3.94,0,0,0,1.51.29,4,4,0,0,0,1.54-.29,4.61,4.61,0,0,0,1.33-.81,3.75,3.75,0,0,0,.92-1.24,3.52,3.52,0,0,0,.33-1.49V37.75c0-.2.09-.3.26-.3Z" transform="translate(-14.9 -11.92)"/><path class="cls-1" d="M200.71,41.06a5.47,5.47,0,0,0-1.21.15,4.32,4.32,0,0,0-1.24.48,3.45,3.45,0,0,0-1,.81,1.8,1.8,0,0,0-.38,1.14,2.62,2.62,0,0,0,.38,1.42,3.91,3.91,0,0,0,1,1.07,9.24,9.24,0,0,0,1.51.87c.57.27,1.18.53,1.82.77.91.37,1.84.79,2.8,1.25a10.86,10.86,0,0,1,2.6,1.77A8.82,8.82,0,0,1,209,53.45a9.17,9.17,0,0,1,.75,3.94,6.91,6.91,0,0,1-.75,3.22,8.11,8.11,0,0,1-2,2.49,9.44,9.44,0,0,1-2.84,1.6,9.55,9.55,0,0,1-3.24.58,8.55,8.55,0,0,1-8.7-6.67q-.07-.22.18-.3l3.76-1.51a.24.24,0,0,1,.26,0,.37.37,0,0,1,.15.18A5,5,0,0,0,198,60a4.49,4.49,0,0,0,3.17,1.09,3.46,3.46,0,0,0,1.29-.28,5.58,5.58,0,0,0,1.33-.73A4.26,4.26,0,0,0,204.86,59a2.48,2.48,0,0,0,.42-1.38,4.87,4.87,0,0,0-.48-2.28,5.13,5.13,0,0,0-1.25-1.59,7.15,7.15,0,0,0-1.79-1.12c-.67-.31-1.38-.6-2.12-.87s-1.71-.67-2.56-1.07a9,9,0,0,1-2.26-1.49,6.7,6.7,0,0,1-1.62-2.25,8,8,0,0,1-.63-3.41,5.51,5.51,0,0,1,.74-2.85,7.26,7.26,0,0,1,1.89-2.16,8.94,8.94,0,0,1,2.62-1.36,9.62,9.62,0,0,1,7.9.86,9.61,9.61,0,0,1,3.43,3.89.26.26,0,0,1-.15.41l-3.68,1.47c-.25.1-.37,0-.37-.18a2.61,2.61,0,0,0-.63-1.14,3.7,3.7,0,0,0-1-.8,4.8,4.8,0,0,0-1.27-.46A6.06,6.06,0,0,0,200.71,41.06Z" transform="translate(-14.9 -11.92)"/></svg>